<svg xmlns="http://www.w3.org/2000/svg" viewBox="0 0 14 17.5" fill="none" x="0px" y="0px"><path d="M5.35933 10C5.9808 10.2859 6.67291 10.3817 7.34867 10.2754C8.02444 10.1691 8.65372 9.8655 9.15742 9.40264C9.66112 8.93978 10.0168 8.33836 10.1797 7.67397C10.3426 7.00958 10.3055 6.31186 10.0731 5.66849C9.84063 5.02512 9.42321 4.4648 8.87327 4.05796C8.32333 3.65112 7.6654 3.4159 6.98217 3.38187C6.29895 3.34784 5.6209 3.51651 5.03325 3.86668C4.4456 4.21686 3.97456 4.73291 3.67933 5.35C3.48077 5.76504 3.36673 6.21542 3.34384 6.67494C3.32095 7.13446 3.38967 7.59394 3.546 8.02666C3.70234 8.45937 3.94317 8.85667 4.25447 9.19545C4.56578 9.53423 4.94135 9.80772 5.35933 10ZM4.58933 5.77C4.86705 5.17776 5.36836 4.71986 5.98327 4.49677C6.59818 4.27367 7.27647 4.30361 7.86933 4.58C8.46158 4.85772 8.91948 5.35903 9.14257 5.97393C9.36566 6.58884 9.33573 7.26714 9.05933 7.86C8.85866 8.28445 8.54163 8.64322 8.1451 8.89459C7.74857 9.14596 7.28883 9.27961 6.81933 9.28C6.47313 9.27793 6.13166 9.19939 5.81933 9.05C5.52258 8.91613 5.25522 8.72492 5.03263 8.48736C4.81003 8.24981 4.63659 7.97059 4.52229 7.66577C4.40798 7.36095 4.35506 7.03654 4.36656 6.71119C4.37807 6.38585 4.45378 6.06598 4.58933 5.77Z" fill="black"/><path d="M1.47933 9.15C1.35849 9.43581 1.25823 9.72989 1.17933 10.03C1.14365 10.1739 1.14038 10.3239 1.16979 10.4691C1.19919 10.6144 1.26052 10.7513 1.34933 10.87C1.61719 11.2309 1.91853 11.5657 2.24933 11.87C2.43273 12.0367 2.6715 12.1294 2.91933 12.13H3.05933C3.37264 12.0798 3.68308 12.013 3.98933 11.93L4.35933 12.12L4.75933 12.29C4.89164 12.5759 5.04194 12.8531 5.20933 13.12C5.28687 13.2439 5.39063 13.3493 5.51329 13.4288C5.63596 13.5083 5.77456 13.5599 5.91933 13.58C6.21768 13.6199 6.51834 13.6399 6.81933 13.64H7.25933C7.40941 13.6279 7.5548 13.582 7.68466 13.5058C7.81453 13.4296 7.92551 13.3251 8.00933 13.2C8.19137 12.9487 8.35512 12.6847 8.49933 12.41L9.15933 12.17C9.447 12.2831 9.74079 12.3799 10.0393 12.46C10.1224 12.4698 10.2063 12.4698 10.2893 12.46C10.5023 12.4579 10.709 12.3878 10.8793 12.26C11.2424 11.9985 11.5775 11.7003 11.8793 11.37C11.9792 11.2604 12.0534 11.13 12.0967 10.9881C12.1399 10.8463 12.1511 10.6967 12.1293 10.55C12.1293 10.24 12.0093 9.92 11.9293 9.62C11.9893 9.5 12.0593 9.38 12.1193 9.25C12.1793 9.12 12.2293 8.99 12.2893 8.85C12.5752 8.7177 12.8525 8.5674 13.1193 8.4C13.2432 8.32246 13.3486 8.21871 13.4281 8.09604C13.5076 7.97337 13.5592 7.83477 13.5793 7.69C13.6245 7.24447 13.6245 6.79553 13.5793 6.35C13.5695 6.20162 13.5267 6.05731 13.454 5.92757C13.3814 5.79783 13.2807 5.68592 13.1593 5.6C12.9079 5.42117 12.6439 5.26075 12.3693 5.12C12.2993 4.89 12.2193 4.67 12.1293 4.45C12.2424 4.16234 12.3392 3.86854 12.4193 3.57C12.455 3.42614 12.4583 3.27614 12.4289 3.13087C12.3995 2.98559 12.3382 2.84866 12.2493 2.73C11.9883 2.36661 11.69 2.03146 11.3593 1.73C11.1734 1.56097 10.9306 1.46815 10.6793 1.47H10.5393C10.2245 1.51165 9.91348 1.57854 9.60933 1.67L9.23933 1.48L8.83933 1.31C8.72336 1.03823 8.58974 0.774336 8.43933 0.52C8.3618 0.396096 8.25804 0.290696 8.13537 0.211221C8.01271 0.131745 7.87411 0.080127 7.72933 0.06C7.43099 0.0201031 7.13033 5.90187e-05 6.82933 0H6.38933C6.24096 0.00983993 6.09665 0.0526463 5.9669 0.125302C5.83716 0.197958 5.72526 0.298634 5.63933 0.42C5.46044 0.674863 5.30003 0.942214 5.15933 1.22C4.9295 1.28052 4.70533 1.36082 4.48933 1.46C4.20353 1.33915 3.90944 1.2389 3.60933 1.16C3.52633 1.14954 3.44234 1.14954 3.35933 1.16C3.14639 1.16214 2.93969 1.23221 2.76933 1.36C2.40811 1.62748 2.07326 1.92885 1.76933 2.26C1.67088 2.36846 1.59746 2.49723 1.55426 2.6372C1.51106 2.77717 1.49914 2.92492 1.51933 3.07C1.55993 3.38504 1.62683 3.69613 1.71933 4C1.64933 4.12 1.58933 4.25 1.52933 4.37C1.46933 4.49 1.40933 4.64 1.35933 4.77C1.06913 4.90011 0.788433 5.05048 0.519334 5.22C0.395431 5.29754 0.290031 5.40129 0.210555 5.52396C0.13108 5.64663 0.0794614 5.78523 0.0593344 5.93C0.00413463 6.36769 -0.0125961 6.80938 0.00933437 7.25C0.020334 7.39922 0.0646779 7.54407 0.139098 7.67387C0.213518 7.80367 0.316118 7.91512 0.439334 8C0.694022 8.18213 0.961366 8.34588 1.23933 8.49C1.30154 8.71607 1.3818 8.93678 1.47933 9.15ZM1.05933 6.05C1.40639 5.82623 1.77906 5.64494 2.16933 5.51C2.23993 5.25668 2.3302 5.00926 2.43933 4.77C2.55022 4.53808 2.67719 4.3142 2.81933 4.1C2.67612 3.7155 2.57552 3.31644 2.51933 2.91C2.77465 2.62764 3.05588 2.36985 3.35933 2.14C3.75676 2.24239 4.14223 2.38652 4.50933 2.57C4.93341 2.34255 5.3881 2.17752 5.85933 2.08C6.01562 1.69739 6.21705 1.33483 6.45933 1H6.82933C7.08675 1.00173 7.34385 1.01842 7.59933 1.05C7.81601 1.39953 7.99374 1.77175 8.12933 2.16C8.38265 2.2306 8.63007 2.32087 8.86933 2.43C9.10241 2.53867 9.32645 2.66574 9.53933 2.81C9.92384 2.66678 10.3229 2.56618 10.7293 2.51C11.0143 2.76269 11.2723 3.04419 11.4993 3.35C11.4015 3.74883 11.2572 4.1348 11.0693 4.5C11.3003 4.92352 11.4687 5.37824 11.5693 5.85C11.9453 6.00711 12.3011 6.20853 12.6293 6.45C12.6691 6.82896 12.6691 7.21104 12.6293 7.59C12.2798 7.80668 11.9076 7.9844 11.5193 8.12C11.4487 8.37332 11.3585 8.62074 11.2493 8.86C11.1407 9.09307 11.0136 9.31712 10.8693 9.53C11.016 9.91411 11.1199 10.3132 11.1793 10.72C10.9232 11.0052 10.6384 11.2632 10.3293 11.49C9.93371 11.3921 9.55106 11.2478 9.18933 11.06C8.76239 11.2912 8.30435 11.4596 7.82933 11.56C7.67185 11.9338 7.47401 12.2892 7.23933 12.62H6.81933C6.56508 12.6233 6.31097 12.6066 6.05933 12.57C5.83557 12.2229 5.65427 11.8503 5.51933 11.46C5.26601 11.3894 5.01859 11.2991 4.77933 11.19C4.54741 11.0791 4.32353 10.9521 4.10933 10.81C3.72523 10.9566 3.32616 11.0606 2.91933 11.12C2.63679 10.8612 2.37901 10.5767 2.14933 10.27C2.25167 9.87578 2.39582 9.49361 2.57933 9.13C2.35098 8.7028 2.18593 8.24468 2.08933 7.77C1.70933 7.61648 1.34719 7.422 1.00933 7.19C0.990979 6.80927 1.00772 6.42766 1.05933 6.05Z" fill="black"/><text x="0" y="29" fill="#000000" font-size="5px" font-weight="bold" font-family="'Helvetica Neue', Helvetica, Arial-Unicode, Arial, Sans-serif">Created by Oliver Silvérus</text><text x="0" y="34" fill="#000000" font-size="5px" font-weight="bold" font-family="'Helvetica Neue', Helvetica, Arial-Unicode, Arial, Sans-serif">from the Noun Project</text></svg>